<svg width="24" height="24" viewBox="0 0 24 24" fill="none" xmlns="http://www.w3.org/2000/svg">
  <path d="M12 21C7 17 4 13 4 9C4 6 6 4 8 4C9.5 4 11 5 12 6.5C13 5 14.5 4 16 4C18 4 20 6 20 9C20 13 17 17 12 21Z" stroke="white" stroke-width="1.5" stroke-linecap="round" stroke-linejoin="round"/>
  <path d="M12 18C8.5 15 6 12 6 9C6 7 7.5 6 8.5 6C9.5 6 10.5 6.8 12 8.5C13.5 6.8 14.5 6 15.5 6C16.5 6 18 7 18 9C18 12 15.5 15 12 18Z" stroke="#38BDF8" stroke-width="1" stroke-linecap="round" stroke-linejoin="round"/>
</svg>
